<svg class="cq-eW" width="16px" height="16px" viewBox="0 0 32 32" data-di-res-id="3601fbf-ccfea761" data-di-rand="1671354244249"><g fill="#E2007A" stroke="none"><path d="M16 30.222c7.855 0 14.222-6.367 14.222-14.222s-6.367-14.222-14.222-14.222c-7.855 0-14.222 6.367-14.222 14.222s6.367 14.222 14.222 14.222zM16 32c-8.837 0-16-7.163-16-16s7.163-16 16-16c8.837 0 16 7.163 16 16s-7.163 16-16 16zM17.322 6.4c0.557 0 0.986 0.158 1.287 0.475s0.452 0.722 0.452 1.214c0 0.587-0.226 1.103-0.678 1.549s-1.003 0.669-1.652 0.669c-0.557 0-0.986-0.153-1.287-0.458s-0.441-0.727-0.417-1.267c0-0.54 0.203-1.038 0.609-1.496s0.968-0.686 1.687-0.686v0zM13.739 24c-1.159 0-1.472-1.044-0.939-3.133l1.043-4.47c0.162-0.657 0.162-0.986 0-0.986-0.139 0-0.452 0.106-0.939 0.317s-0.904 0.434-1.252 0.669l-0.452-0.774c1.043-0.915 2.139-1.654 3.287-2.218s2.023-0.845 2.626-0.845c0.904 0 1.113 0.95 0.626 2.851l-1.217 4.682c-0.186 0.751-0.151 1.126 0.104 1.126 0.51 0 1.194-0.352 2.052-1.056l0.522 0.704c-0.974 1.009-1.988 1.783-3.043 2.323s-1.861 0.81-2.417 0.81v0z"></path></g></svg>