<svg class="cq-eW" width="24px" height="24px" viewBox="0 0 32 32" data-di-res-id="3601fbf-b549e0b0" data-di-rand="1671354244248"><g stroke="none"><path aria-label="ThumbUp Icon" d="M22.485 11.311c-0.236-0.631 6.292-6.46 2.485-11.184-0.891-1.104-3.913 5.289-8.204 8.183-2.368 1.596-7.877 4.996-7.877 6.875v12.164c0 2.26 8.736 4.652 15.374 4.652 2.434 0 5.959-15.246 5.959-17.668 0-2.432-7.504-2.389-7.737-3.022v0zM7.111 11.48c-1.17 0-5.333 0.711-5.333 5.552v8.619c0 4.837 4.164 5.371 5.333 5.371 1.168 0-1.778-1.017-1.778-4.018v-11.33c0-3.143 2.946-4.194 1.778-4.194v0z"></path></g></svg>